<svg width="562" height="126" viewBox="0 0 562 126" fill="none" xmlns="http://www.w3.org/2000/svg">
<path d="M139.439 60.8174C133.811 59.1995 129.71 57.2171 127.135 54.8701C124.583 52.5003 123.307 49.5837 123.307 46.1201C123.307 42.2008 124.868 38.9652 127.989 36.4131C131.134 33.8382 135.213 32.5508 140.226 32.5508C143.644 32.5508 146.686 33.2116 149.352 34.5332C152.04 35.8548 154.114 37.6777 155.572 40.002C157.053 42.3262 157.794 44.8669 157.794 47.624H151.197C151.197 44.6162 150.24 42.2578 148.326 40.5488C146.412 38.8171 143.712 37.9512 140.226 37.9512C136.99 37.9512 134.461 38.6689 132.638 40.1045C130.838 41.5173 129.938 43.4883 129.938 46.0176C129.938 48.0456 130.792 49.766 132.501 51.1787C134.233 52.5687 137.161 53.8447 141.285 55.0068C145.432 56.1689 148.668 57.4564 150.992 58.8691C153.339 60.2591 155.071 61.8883 156.188 63.7568C157.327 65.6253 157.896 67.8242 157.896 70.3535C157.896 74.3867 156.324 77.6224 153.18 80.0605C150.035 82.4759 145.831 83.6836 140.567 83.6836C137.149 83.6836 133.959 83.0342 130.997 81.7354C128.035 80.4137 125.745 78.6136 124.127 76.335C122.532 74.0563 121.734 71.4701 121.734 68.5762H128.331C128.331 71.584 129.436 73.9652 131.646 75.7197C133.88 77.4515 136.853 78.3174 140.567 78.3174C144.031 78.3174 146.686 77.611 148.531 76.1982C150.377 74.7855 151.3 72.86 151.3 70.4219C151.3 67.9837 150.445 66.1038 148.736 64.7822C147.027 63.4378 143.928 62.1162 139.439 60.8174ZM203.082 76.4717C201.396 78.887 199.037 80.6986 196.007 81.9062C192.999 83.0911 189.49 83.6836 185.479 83.6836C181.424 83.6836 177.823 82.738 174.679 80.8467C171.534 78.9326 169.096 76.221 167.364 72.7119C165.655 69.2028 164.778 65.1354 164.732 60.5098V56.1689C164.732 48.6722 166.476 42.8617 169.962 38.7373C173.471 34.613 178.393 32.5508 184.728 32.5508C189.923 32.5508 194.104 33.8838 197.271 36.5498C200.439 39.193 202.376 42.9528 203.082 47.8291H196.52C195.289 41.2438 191.37 37.9512 184.762 37.9512C180.364 37.9512 177.026 39.5007 174.747 42.5996C172.491 45.6758 171.352 50.1419 171.329 55.998V60.0654C171.329 65.6481 172.605 70.0915 175.157 73.3955C177.709 76.6768 181.161 78.3174 185.514 78.3174C187.975 78.3174 190.128 78.0439 191.974 77.4971C193.819 76.9502 195.346 76.0273 196.554 74.7285V63.5518H185.035V58.2197H203.082V76.4717ZM250.797 76.4717C249.111 78.887 246.752 80.6986 243.722 81.9062C240.714 83.0911 237.205 83.6836 233.194 83.6836C229.138 83.6836 225.538 82.738 222.394 80.8467C219.249 78.9326 216.811 76.221 215.079 72.7119C213.37 69.2028 212.493 65.1354 212.447 60.5098V56.1689C212.447 48.6722 214.19 42.8617 217.677 38.7373C221.186 34.613 226.108 32.5508 232.442 32.5508C237.638 32.5508 241.819 33.8838 244.986 36.5498C248.154 39.193 250.09 42.9528 250.797 47.8291H244.234C243.004 41.2438 239.085 37.9512 232.477 37.9512C228.079 37.9512 224.741 39.5007 222.462 42.5996C220.206 45.6758 219.067 50.1419 219.044 55.998V60.0654C219.044 65.6481 220.32 70.0915 222.872 73.3955C225.424 76.6768 228.876 78.3174 233.229 78.3174C235.689 78.3174 237.843 78.0439 239.688 77.4971C241.534 76.9502 243.061 76.0273 244.269 74.7285V63.5518H232.75V58.2197H250.797V76.4717ZM289.898 59.9971H268.331V77.6338H293.385V83H261.769V33.2344H293.043V38.6348H268.331V54.6309H289.898V59.9971ZM316.217 60.8174C310.589 59.1995 306.487 57.2171 303.912 54.8701C301.36 52.5003 300.084 49.5837 300.084 46.1201C300.084 42.2008 301.645 38.9652 304.767 36.4131C307.911 33.8382 311.99 32.5508 317.003 32.5508C320.421 32.5508 323.463 33.2116 326.129 34.5332C328.818 35.8548 330.891 37.6777 332.35 40.002C333.831 42.3262 334.571 44.8669 334.571 47.624H327.975C327.975 44.6162 327.018 42.2578 325.104 40.5488C323.189 38.8171 320.489 37.9512 317.003 37.9512C313.767 37.9512 311.238 38.6689 309.415 40.1045C307.615 41.5173 306.715 43.4883 306.715 46.0176C306.715 48.0456 307.569 49.766 309.278 51.1787C311.01 52.5687 313.938 53.8447 318.062 55.0068C322.21 56.1689 325.445 57.4564 327.77 58.8691C330.117 60.2591 331.848 61.8883 332.965 63.7568C334.104 65.6253 334.674 67.8242 334.674 70.3535C334.674 74.3867 333.102 77.6224 329.957 80.0605C326.812 82.4759 322.608 83.6836 317.345 83.6836C313.927 83.6836 310.737 83.0342 307.774 81.7354C304.812 80.4137 302.522 78.6136 300.904 76.335C299.309 74.0563 298.512 71.4701 298.512 68.5762H305.108C305.108 71.584 306.214 73.9652 308.424 75.7197C310.657 77.4515 313.631 78.3174 317.345 78.3174C320.808 78.3174 323.463 77.611 325.309 76.1982C327.154 74.7855 328.077 72.86 328.077 70.4219C328.077 67.9837 327.223 66.1038 325.514 64.7822C323.805 63.4378 320.706 62.1162 316.217 60.8174Z" fill="#00A064"/>
<path d="M391.446 83H358.839V78.4541L376.065 59.3135C378.618 56.4196 380.372 54.0726 381.329 52.2725C382.309 50.4495 382.799 48.5697 382.799 46.6328C382.799 44.0352 382.013 41.9046 380.44 40.2412C378.868 38.5778 376.772 37.7461 374.151 37.7461C371.007 37.7461 368.557 38.6462 366.803 40.4463C365.071 42.2236 364.205 44.7074 364.205 47.8975H357.882C357.882 43.3174 359.352 39.6146 362.291 36.7891C365.253 33.9635 369.207 32.5508 374.151 32.5508C378.777 32.5508 382.434 33.7699 385.123 36.208C387.812 38.6234 389.156 41.8477 389.156 45.8809C389.156 50.7799 386.035 56.6133 379.791 63.3809L366.461 77.8389H391.446V83ZM470.06 83H437.452V78.4541L454.679 59.3135C457.231 56.4196 458.985 54.0726 459.942 52.2725C460.922 50.4495 461.412 48.5697 461.412 46.6328C461.412 44.0352 460.626 41.9046 459.054 40.2412C457.481 38.5778 455.385 37.7461 452.765 37.7461C449.62 37.7461 447.171 38.6462 445.416 40.4463C443.684 42.2236 442.818 44.7074 442.818 47.8975H436.495C436.495 43.3174 437.965 39.6146 440.904 36.7891C443.867 33.9635 447.82 32.5508 452.765 32.5508C457.39 32.5508 461.048 33.7699 463.736 36.208C466.425 38.6234 467.77 41.8477 467.77 45.8809C467.77 50.7799 464.648 56.6133 458.404 63.3809L445.074 77.8389H470.06V83ZM497.54 83H491.183V40.8564L478.434 45.5391V39.7969L496.549 32.9951H497.54V83Z" fill="#0F4F34"/>
<path fill-rule="evenodd" clip-rule="evenodd" d="M403.897 36.6023C403.111 37.2571 402.41 38.0172 401.794 38.8828C399.265 42.4375 398 47.8721 398 55.1865V63.6289C398.091 70.6243 399.413 75.888 401.965 79.4199C404.517 82.929 408.448 84.6836 413.757 84.6836C419.134 84.6836 423.088 82.8835 425.617 79.2832C428.146 75.6829 429.411 70.18 429.411 62.7744V54.5713C429.343 47.4163 428.044 42.1299 425.515 38.7119C424.745 37.6647 423.844 36.7768 422.813 36.0483L421.352 43.4019C422.509 45.8548 423.088 49.4298 423.088 54.1269V64.4834C423.02 69.6787 422.222 73.484 420.695 75.8994C419.191 78.3148 416.879 79.5225 413.757 79.5225C410.59 79.5225 408.22 78.2464 406.647 75.6943C405.098 73.1195 404.323 69.1432 404.323 63.7656V53.6484C404.358 49.756 404.818 46.6393 405.703 44.2984L403.897 36.6023Z" fill="#00A064"/>
<circle cx="54.5" cy="56.5" r="38.5" fill="white"/>
<circle cx="54.5" cy="56.5" r="53" fill="#3FC283" stroke="#067A52" stroke-width="3"/>
<path d="M51.9977 64.6263L62.8896 5.7107L21.108 58.9156L51.9977 64.6263Z" fill="white" stroke="#067A52" stroke-width="2"/>
<path d="M55.0023 48.3737L44.1104 107.289L85.892 54.0844L55.0023 48.3737Z" fill="white" stroke="#067A52" stroke-width="2"/>
<line x1="54.6678" y1="49.3636" x2="52.0318" y2="63.622" stroke="white" stroke-width="4"/>
<rect x="409.069" y="32" width="8" height="16" fill="#00A064"/>
</svg>
